<?xml version="1.0" standalone="no"?>
<!DOCTYPE svg PUBLIC "-//W3C//DTD SVG 20010904//EN"
 "http://www.w3.org/TR/2001/REC-SVG-20010904/DTD/svg10.dtd">
<svg version="1.0" xmlns="http://www.w3.org/2000/svg"
 width="655.000000pt" height="654.000000pt" viewBox="0 0 655.000000 654.000000"
 preserveAspectRatio="xMidYMid meet">

<g transform="translate(0.000000,654.000000) scale(0.100000,-0.100000)"
fill="#000000" stroke="none">
<path d="M2955 6499 c-224 -23 -486 -79 -690 -148 -66 -23 -127 -43 -135 -45
-41 -12 -237 -100 -330 -148 -146 -76 -193 -103 -288 -167 -45 -31 -90 -60
-99 -66 -26 -16 -241 -183 -269 -209 -79 -73 -261 -256 -309 -311 -73 -84
-196 -239 -220 -278 -5 -9 -35 -54 -66 -99 -31 -46 -59 -90 -63 -98 -3 -8 -16
-31 -28 -50 -48 -79 -143 -273 -190 -390 -179 -446 -246 -819 -235 -1309 11
-495 123 -940 346 -1375 79 -154 223 -389 276 -449 6 -7 40 -51 77 -98 37 -48
89 -111 115 -140 62 -69 253 -260 253 -252 0 3 9 -6 20 -20 18 -22 80 -73 208
-170 20 -15 44 -33 52 -40 38 -30 194 -131 275 -177 365 -207 732 -334 1159
-401 190 -30 597 -37 796 -14 534 61 1054 251 1470 537 30 21 63 44 74 51 10
6 32 24 50 39 17 15 34 28 38 28 14 0 177 146 303 270 123 121 149 150 252
274 24 28 49 59 58 69 8 9 15 21 15 26 0 5 4 11 8 13 10 4 166 239 211 318 29
50 124 243 164 330 34 77 100 262 133 375 139 477 163 1017 68 1509 -81 413
-268 865 -498 1201 -45 65 -44 64 -113 151 -26 34 -59 76 -73 95 -14 19 -41
51 -61 72 -20 20 -36 37 -34 37 4 0 -201 206 -255 256 -30 27 -84 72 -120 100
-36 27 -69 54 -75 60 -11 12 -83 61 -198 135 -404 261 -810 414 -1302 491
-149 23 -611 34 -770 17z m685 -349 c266 -34 540 -106 760 -202 90 -40 326
-161 367 -189 23 -16 45 -29 48 -29 7 0 125 -80 135 -91 3 -3 33 -25 68 -48
34 -24 62 -48 62 -52 0 -5 4 -8 8 -7 9 3 18 -4 121 -98 113 -105 185 -178 251
-258 36 -43 70 -83 76 -90 5 -6 37 -47 70 -91 32 -44 62 -81 67 -83 4 -2 7 -8
7 -14 0 -5 13 -28 28 -51 199 -292 364 -713 426 -1087 59 -357 48 -796 -29
-1130 -77 -332 -222 -676 -397 -937 -26 -40 -48 -75 -48 -78 0 -4 -14 -23 -30
-43 -17 -20 -63 -79 -104 -129 -102 -128 -274 -306 -366 -380 -19 -15 -44 -36
-55 -45 -45 -38 -175 -138 -180 -138 -3 0 -39 -23 -80 -50 -41 -28 -79 -50
-85 -50 -5 0 -10 -3 -10 -7 0 -5 -10 -13 -23 -19 -12 -6 -78 -40 -147 -76 -69
-36 -136 -69 -150 -73 -14 -4 -48 -18 -75 -30 -65 -29 -276 -98 -382 -125
-224 -56 -435 -80 -699 -80 -364 0 -618 41 -940 150 -217 74 -506 213 -619
297 -6 5 -51 35 -100 68 -50 33 -98 67 -109 75 -19 15 -87 72 -141 117 -77 64
-253 243 -343 349 -40 48 -40 48 -82 109 -18 28 -36 52 -40 55 -3 3 -28 39
-54 80 -27 41 -59 91 -72 110 -23 36 -160 304 -181 356 -83 200 -155 451 -187
644 -51 316 -51 671 0 980 48 293 172 649 310 892 24 42 44 80 44 83 0 3 8 18
19 33 10 15 50 75 89 134 39 59 82 120 95 135 14 15 58 69 100 118 179 214
512 500 690 591 17 9 34 20 37 23 8 10 99 59 209 112 519 251 1064 341 1641
269z"/>
<path d="M2452 4278 c66 -150 133 -302 148 -338 15 -36 44 -100 64 -143 20
-42 36 -79 36 -82 0 -3 20 -51 45 -107 25 -57 51 -114 56 -128 6 -14 19 -43
29 -65 10 -22 33 -76 51 -120 18 -44 36 -82 40 -85 3 -3 10 -16 14 -30 4 -14
20 -52 35 -85 15 -33 49 -109 75 -170 26 -60 61 -139 77 -175 17 -36 49 -110
73 -165 88 -205 151 -341 175 -376 25 -36 132 -139 145 -139 3 0 13 -7 21 -15
34 -34 145 -58 292 -63 87 -2 142 -1 142 5 0 6 -6 23 -14 39 -8 16 -37 81 -66
144 -28 63 -62 138 -75 165 -32 70 -58 129 -93 210 -16 39 -83 187 -147 330
-64 143 -129 287 -143 320 -14 33 -29 62 -32 65 -3 3 -12 25 -20 50 -7 25 -33
83 -56 130 -23 47 -69 146 -102 220 -33 74 -75 169 -95 210 -19 41 -63 138
-97 215 -91 209 -110 242 -170 304 -65 66 -175 124 -264 140 -33 6 -106 11
-162 11 l-102 0 120 -272z"/>
<path d="M4830 4543 c-55 -9 -135 -38 -152 -55 -10 -10 -22 -18 -27 -18 -12 0
-55 -36 -89 -75 -15 -16 -54 -59 -87 -95 -34 -36 -86 -94 -117 -130 -52 -62
-145 -162 -223 -241 -19 -20 -35 -40 -35 -44 0 -5 -22 -31 -49 -59 -63 -66
-131 -140 -221 -244 -40 -45 -81 -87 -91 -93 -11 -5 -19 -15 -19 -20 0 -6 -27
-37 -60 -69 -91 -88 -91 -131 -3 -213 23 -21 45 -47 48 -58 4 -10 10 -19 15
-19 11 0 207 -195 290 -287 30 -34 104 -112 164 -175 60 -62 147 -153 194
-203 46 -49 120 -126 163 -171 44 -44 79 -84 79 -88 0 -16 86 -95 131 -119
115 -65 144 -70 402 -75 215 -3 238 -2 235 12 -3 17 -99 123 -263 291 -198
203 -592 615 -726 758 -35 38 -103 109 -151 158 -49 49 -88 94 -88 100 0 6 25
35 55 64 30 30 55 59 55 65 0 5 7 10 15 10 8 0 15 5 15 11 0 6 29 41 64 78 35
36 126 134 202 216 76 83 165 179 198 215 34 36 113 122 176 190 108 117 182
195 308 326 28 30 52 57 52 59 0 6 -425 4 -460 -2z"/>
<path d="M2165 4228 c-15 -35 -50 -112 -77 -173 -27 -60 -68 -150 -90 -200
-22 -49 -48 -108 -58 -130 -10 -22 -45 -101 -78 -175 -74 -167 -104 -232 -153
-338 -22 -46 -39 -85 -39 -88 0 -3 -13 -33 -29 -67 -47 -101 -81 -177 -123
-272 -22 -49 -50 -112 -63 -140 -13 -27 -38 -84 -55 -125 -18 -41 -50 -113
-72 -160 -22 -47 -55 -119 -73 -160 -18 -41 -47 -105 -64 -143 l-30 -67 256 2
c242 3 256 4 267 23 6 10 16 25 22 31 6 7 17 27 25 46 7 18 20 42 29 52 45 57
101 113 151 152 182 140 334 184 633 184 181 0 219 11 276 81 39 49 50 79 50
141 0 76 -39 140 -109 181 l-56 32 -307 3 c-170 2 -308 7 -308 11 0 5 27 71
60 147 102 235 142 384 156 589 11 155 -26 391 -89 563 l-24 64 -28 -64z"/>
</g>
</svg>
