<?xml version="1.0" standalone="no"?>
<!DOCTYPE svg PUBLIC "-//W3C//DTD SVG 20010904//EN"
 "http://www.w3.org/TR/2001/REC-SVG-20010904/DTD/svg10.dtd">
<svg version="1.0" xmlns="http://www.w3.org/2000/svg"
 width="1276.000000pt" height="654.000000pt" viewBox="0 0 1276.000000 654.000000"
 preserveAspectRatio="xMidYMid meet">

<g transform="translate(0.000000,654.000000) scale(0.100000,-0.100000)"
fill="#FFFFFF" stroke="none">
<path d="M2955 6499 c-224 -23 -486 -79 -690 -148 -66 -23 -127 -43 -135 -45
-41 -12 -237 -100 -330 -148 -146 -76 -193 -103 -288 -167 -45 -31 -90 -60
-99 -66 -26 -16 -241 -183 -269 -209 -79 -73 -261 -256 -309 -311 -73 -84
-196 -239 -220 -278 -5 -9 -35 -54 -66 -99 -31 -46 -59 -90 -63 -98 -3 -8 -16
-31 -28 -50 -48 -79 -143 -273 -190 -390 -179 -446 -246 -819 -235 -1309 11
-495 123 -940 346 -1375 79 -154 223 -389 276 -449 6 -7 40 -51 77 -98 37 -48
89 -111 115 -140 62 -69 253 -260 253 -252 0 3 9 -6 20 -20 18 -22 80 -73 208
-170 20 -15 44 -33 52 -40 38 -30 194 -131 275 -177 365 -207 732 -334 1159
-401 190 -30 597 -37 796 -14 534 61 1054 251 1470 537 30 21 63 44 74 51 10
6 32 24 50 39 17 15 34 28 38 28 14 0 177 146 303 270 123 121 149 150 252
274 24 28 49 59 58 69 8 9 15 21 15 26 0 5 4 11 8 13 10 4 166 239 211 318 29
50 124 243 164 330 34 77 100 262 133 375 139 477 163 1017 68 1509 -81 413
-268 865 -498 1201 -45 65 -44 64 -113 151 -26 34 -59 76 -73 95 -14 19 -41
51 -61 72 -20 20 -36 37 -34 37 4 0 -201 206 -255 256 -30 27 -84 72 -120 100
-36 27 -69 54 -75 60 -11 12 -83 61 -198 135 -404 261 -810 414 -1302 491
-149 23 -611 34 -770 17z m685 -349 c266 -34 540 -106 760 -202 90 -40 326
-161 367 -189 23 -16 45 -29 48 -29 7 0 125 -80 135 -91 3 -3 33 -25 68 -48
34 -24 62 -48 62 -52 0 -5 4 -8 8 -7 9 3 18 -4 121 -98 113 -105 185 -178 251
-258 36 -43 70 -83 76 -90 5 -6 37 -47 70 -91 32 -44 62 -81 67 -83 4 -2 7 -8
7 -14 0 -5 13 -28 28 -51 199 -292 364 -713 426 -1087 59 -357 48 -796 -29
-1130 -77 -332 -222 -676 -397 -937 -26 -40 -48 -75 -48 -78 0 -4 -14 -23 -30
-43 -17 -20 -63 -79 -104 -129 -102 -128 -274 -306 -366 -380 -19 -15 -44 -36
-55 -45 -45 -38 -175 -138 -180 -138 -3 0 -39 -23 -80 -50 -41 -28 -79 -50
-85 -50 -5 0 -10 -3 -10 -7 0 -5 -10 -13 -23 -19 -12 -6 -78 -40 -147 -76 -69
-36 -136 -69 -150 -73 -14 -4 -48 -18 -75 -30 -65 -29 -276 -98 -382 -125
-224 -56 -435 -80 -699 -80 -364 0 -618 41 -940 150 -217 74 -506 213 -619
297 -6 5 -51 35 -100 68 -50 33 -98 67 -109 75 -19 15 -87 72 -141 117 -77 64
-253 243 -343 349 -40 48 -40 48 -82 109 -18 28 -36 52 -40 55 -3 3 -28 39
-54 80 -27 41 -59 91 -72 110 -23 36 -160 304 -181 356 -83 200 -155 451 -187
644 -51 316 -51 671 0 980 48 293 172 649 310 892 24 42 44 80 44 83 0 3 8 18
19 33 10 15 50 75 89 134 39 59 82 120 95 135 14 15 58 69 100 118 179 214
512 500 690 591 17 9 34 20 37 23 8 10 99 59 209 112 519 251 1064 341 1641
269z"/>
<path d="M2452 4278 c66 -150 133 -302 148 -338 15 -36 44 -100 64 -143 20
-42 36 -79 36 -82 0 -3 20 -51 45 -107 25 -57 51 -114 56 -128 6 -14 19 -43
29 -65 10 -22 33 -76 51 -120 18 -44 36 -82 40 -85 3 -3 10 -16 14 -30 4 -14
20 -52 35 -85 15 -33 49 -109 75 -170 26 -60 61 -139 77 -175 17 -36 49 -110
73 -165 88 -205 151 -341 175 -376 25 -36 132 -139 145 -139 3 0 13 -7 21 -15
34 -34 145 -58 292 -63 87 -2 142 -1 142 5 0 6 -6 23 -14 39 -8 16 -37 81 -66
144 -28 63 -62 138 -75 165 -32 70 -58 129 -93 210 -16 39 -83 187 -147 330
-64 143 -129 287 -143 320 -14 33 -29 62 -32 65 -3 3 -12 25 -20 50 -7 25 -33
83 -56 130 -23 47 -69 146 -102 220 -33 74 -75 169 -95 210 -19 41 -63 138
-97 215 -91 209 -110 242 -170 304 -65 66 -175 124 -264 140 -33 6 -106 11
-162 11 l-102 0 120 -272z"/>
<path d="M4830 4543 c-55 -9 -135 -38 -152 -55 -10 -10 -22 -18 -27 -18 -12 0
-55 -36 -89 -75 -15 -16 -54 -59 -87 -95 -34 -36 -86 -94 -117 -130 -52 -62
-145 -162 -223 -241 -19 -20 -35 -40 -35 -44 0 -5 -22 -31 -49 -59 -63 -66
-131 -140 -221 -244 -40 -45 -81 -87 -91 -93 -11 -5 -19 -15 -19 -20 0 -6 -27
-37 -60 -69 -91 -88 -91 -131 -3 -213 23 -21 45 -47 48 -58 4 -10 10 -19 15
-19 11 0 207 -195 290 -287 30 -34 104 -112 164 -175 60 -62 147 -153 194
-203 46 -49 120 -126 163 -171 44 -44 79 -84 79 -88 0 -16 86 -95 131 -119
115 -65 144 -70 402 -75 215 -3 238 -2 235 12 -3 17 -99 123 -263 291 -198
203 -592 615 -726 758 -35 38 -103 109 -151 158 -49 49 -88 94 -88 100 0 6 25
35 55 64 30 30 55 59 55 65 0 5 7 10 15 10 8 0 15 5 15 11 0 6 29 41 64 78 35
36 126 134 202 216 76 83 165 179 198 215 34 36 113 122 176 190 108 117 182
195 308 326 28 30 52 57 52 59 0 6 -425 4 -460 -2z"/>
<path d="M2165 4228 c-15 -35 -50 -112 -77 -173 -27 -60 -68 -150 -90 -200
-22 -49 -48 -108 -58 -130 -10 -22 -45 -101 -78 -175 -74 -167 -104 -232 -153
-338 -22 -46 -39 -85 -39 -88 0 -3 -13 -33 -29 -67 -47 -101 -81 -177 -123
-272 -22 -49 -50 -112 -63 -140 -13 -27 -38 -84 -55 -125 -18 -41 -50 -113
-72 -160 -22 -47 -55 -119 -73 -160 -18 -41 -47 -105 -64 -143 l-30 -67 256 2
c242 3 256 4 267 23 6 10 16 25 22 31 6 7 17 27 25 46 7 18 20 42 29 52 45 57
101 113 151 152 182 140 334 184 633 184 181 0 219 11 276 81 39 49 50 79 50
141 0 76 -39 140 -109 181 l-56 32 -307 3 c-170 2 -308 7 -308 11 0 5 27 71
60 147 102 235 142 384 156 589 11 155 -26 391 -89 563 l-24 64 -28 -64z"/>
<path d="M8535 4843 c-46 -10 -73 -26 -84 -49 -8 -18 -11 -178 -11 -539 l0
-515 120 0 120 0 0 145 c0 80 4 145 8 145 10 0 142 -136 222 -228 l55 -63 147
3 148 3 -77 100 c-42 55 -123 147 -179 205 l-103 106 105 83 c57 46 129 106
160 133 l55 51 -22 23 c-34 36 -86 56 -146 55 -69 0 -88 -12 -240 -140 -66
-55 -123 -101 -127 -101 -3 0 -6 128 -6 284 l0 283 -57 12 c-31 6 -59 10 -62
10 -3 -1 -15 -3 -26 -6z"/>
<path d="M10345 4843 c-46 -10 -73 -26 -84 -49 -8 -18 -11 -178 -11 -539 l0
-515 120 0 120 0 0 544 0 543 -57 12 c-31 6 -59 10 -62 10 -3 -1 -15 -3 -26
-6z"/>
<path d="M10765 4843 c-46 -10 -73 -26 -84 -49 -8 -18 -11 -178 -11 -539 l0
-515 120 0 120 0 0 544 0 543 -57 12 c-31 6 -59 10 -62 10 -3 -1 -15 -3 -26
-6z"/>
<path d="M7723 4791 c-46 -12 -77 -35 -101 -73 -26 -42 -209 -469 -323 -753
l-88 -220 121 -3 c67 -1 127 -1 133 2 7 2 29 52 49 110 l38 106 221 -2 220 -3
40 -107 39 -108 139 0 c77 0 139 2 139 4 0 10 -191 482 -271 667 -134 314
-150 343 -196 362 -51 20 -120 28 -160 18z m126 -459 c28 -74 51 -136 51 -138
0 -2 -56 -4 -125 -4 -69 0 -125 3 -125 7 0 4 23 65 51 137 28 72 56 142 61
156 l10 25 13 -25 c7 -14 36 -85 64 -158z"/>
<path d="M9396 4499 c-26 -4 -48 -17 -64 -34 l-24 -28 4 -241 3 -241 30 -54
c57 -103 153 -146 309 -139 76 3 99 8 140 31 l49 27 -6 -39 c-7 -59 -35 -108
-75 -133 -50 -31 -173 -36 -279 -13 -43 10 -80 17 -83 17 -2 0 -16 -40 -31
-87 l-27 -86 23 -9 c111 -42 360 -54 463 -22 116 37 189 111 228 232 15 47 18
107 22 427 l4 373 -29 11 c-44 17 -149 14 -178 -5 -36 -24 -45 -74 -45 -261 0
-194 -9 -223 -78 -252 -45 -19 -126 -12 -155 14 -41 37 -47 72 -47 293 0 161
-3 210 -12 211 -7 0 -33 3 -58 7 -25 4 -63 5 -84 1z"/>
<path d="M11167 4500 c-21 -4 -48 -17 -60 -29 -21 -21 -22 -29 -22 -264 0
-224 2 -245 21 -287 26 -57 71 -102 131 -131 42 -21 62 -24 163 -24 106 0 119
2 163 27 l47 27 0 -33 c0 -55 -39 -118 -90 -143 -56 -29 -182 -31 -282 -4
l-67 17 -30 -88 -30 -89 24 -9 c122 -47 391 -53 496 -12 30 12 74 38 97 57 48
42 97 136 112 214 5 29 10 211 10 403 l0 348 -27 11 c-69 26 -191 4 -207 -36
-3 -9 -6 -94 -6 -188 0 -95 -5 -189 -10 -209 -27 -96 -169 -131 -242 -58 l-28
28 0 226 c0 226 0 227 -22 235 -36 13 -100 18 -141 11z"/>
<path d="M8014 2954 c-17 -8 -36 -26 -43 -40 -8 -17 -11 -167 -11 -499 l0
-475 125 0 125 0 0 222 0 222 41 -39 c50 -49 220 -249 285 -338 l49 -66 153
-1 c83 0 152 3 152 7 0 21 -233 322 -353 456 l-78 87 193 201 c106 110 194
204 196 209 4 11 -45 44 -87 58 -50 18 -110 14 -155 -8 -46 -22 -155 -124
-299 -279 l-97 -104 0 190 0 191 -44 11 c-61 15 -115 13 -152 -5z"/>
<path d="M10754 2920 c-54 -21 -54 -25 -54 -425 1 -397 3 -412 54 -479 75 -98
283 -125 439 -56 86 37 86 37 38 123 -23 42 -46 79 -51 82 -4 3 -24 -2 -44
-10 -19 -8 -58 -15 -86 -15 -44 0 -56 5 -81 29 l-29 29 0 141 0 141 135 0 134
0 17 56 c19 68 10 119 -28 147 -21 16 -48 21 -142 25 l-116 5 0 98 0 98 -37
10 c-45 13 -119 13 -149 1z"/>
<path d="M9246 2720 c-69 -12 -166 -63 -215 -111 -22 -23 -55 -71 -73 -107
-31 -63 -33 -72 -33 -182 0 -104 3 -120 27 -173 38 -81 77 -126 141 -165 102
-62 235 -78 382 -47 80 17 175 53 175 66 0 5 -18 45 -40 88 l-39 79 -53 -21
c-70 -28 -217 -30 -265 -4 -32 17 -73 55 -73 67 0 4 51 10 114 13 279 15 376
76 376 238 0 55 -5 73 -33 119 -34 58 -107 111 -177 130 -55 15 -161 20 -214
10z m170 -211 c18 -17 24 -32 22 -54 -4 -44 -54 -65 -173 -72 -93 -6 -95 -5
-95 16 0 45 48 109 100 130 41 18 117 7 146 -20z"/>
<path d="M10060 2719 c-80 -13 -172 -62 -220 -116 -64 -73 -70 -107 -70 -405
l0 -258 120 0 120 0 0 225 c0 246 5 274 55 313 21 17 41 22 85 22 44 0 64 -5
85 -22 50 -39 55 -67 55 -313 l0 -225 120 0 120 0 0 263 c0 302 -5 326 -75
405 -52 57 -130 96 -225 111 -74 12 -93 12 -170 0z"/>
</g>
</svg>
